<?xml version="1.0" encoding="UTF-8" standalone="no"?>
<svg
   xmlns:dc="http://purl.org/dc/elements/1.1/"
   xmlns:cc="http://creativecommons.org/ns#"
   xmlns:rdf="http://www.w3.org/1999/02/22-rdf-syntax-ns#"
   xmlns:svg="http://www.w3.org/2000/svg"
   xmlns="http://www.w3.org/2000/svg"
   xmlns:sodipodi="http://sodipodi.sourceforge.net/DTD/sodipodi-0.dtd"
   xmlns:inkscape="http://www.inkscape.org/namespaces/inkscape"
   sodipodi:docname="LogoLight2.svg"
   inkscape:version="1.0 (4035a4fb49, 2020-05-01)"
   id="svg8"
   version="1.1"
   viewBox="0 0 105.83333 115.35832"
   height="436"
   width="400">
  <defs
     id="defs2">
    <rect
       id="rect1048"
       height="107.97689"
       width="416.94046"
       y="-198.84853"
       x="2113.5674" />
    <rect
       x="2113.5674"
       y="-198.84853"
       width="416.94046"
       height="107.97689"
       id="rect1094" />
    <rect
       x="2113.5674"
       y="-198.84853"
       width="416.94046"
       height="107.97689"
       id="rect1144" />
    <rect
       id="rect1146"
       height="107.97689"
       width="416.94046"
       y="-198.84853"
       x="2113.5674" />
    <rect
       x="2113.5674"
       y="-198.84853"
       width="416.94046"
       height="107.97689"
       id="rect1208" />
    <rect
       id="rect1272"
       height="107.97689"
       width="416.94046"
       y="-198.84853"
       x="2113.5674" />
    <rect
       x="2113.5674"
       y="-198.84853"
       width="416.94046"
       height="107.97689"
       id="rect1274" />
    <rect
       x="2113.5674"
       y="-198.84853"
       width="416.94046"
       height="107.97689"
       id="rect1440" />
    <filter
       height="1.2100862"
       y="-0.1050431"
       width="1.2222564"
       x="-0.11112819"
       id="filter1515"
       inkscape:label="Blur"
       style="color-interpolation-filters:sRGB">
      <feGaussianBlur
         id="feGaussianBlur1513"
         result="fbSourceGraphic"
         stdDeviation="17.720552" />
      <feColorMatrix
         id="feColorMatrix1517"
         values="0 0 0 -1 0 0 0 0 -1 0 0 0 0 -1 0 0 0 0 1 0"
         in="fbSourceGraphic"
         result="fbSourceGraphicAlpha" />
      <feGaussianBlur
         in="fbSourceGraphic"
         result="blur"
         stdDeviation="4.5 4.5"
         id="feGaussianBlur1519" />
    </filter>
    <rect
       x="2113.5674"
       y="-198.84853"
       width="416.94046"
       height="107.97689"
       id="rect1033" />
    <rect
       id="rect1035"
       height="107.97689"
       width="416.94046"
       y="-198.84853"
       x="2113.5674" />
    <rect
       id="rect1145"
       height="107.97689"
       width="416.94046"
       y="-198.84853"
       x="2113.5674" />
    <rect
       x="2113.5674"
       y="-198.84853"
       width="416.94046"
       height="107.97689"
       id="rect1147" />
  </defs>
  <sodipodi:namedview
     inkscape:window-maximized="0"
     inkscape:window-y="0"
     inkscape:window-x="474"
     inkscape:window-height="1030"
     inkscape:window-width="1274"
     showborder="true"
     showgrid="false"
     inkscape:document-rotation="0"
     inkscape:current-layer="layer1"
     inkscape:document-units="px"
     inkscape:cy="258.94705"
     inkscape:cx="221.62813"
     inkscape:zoom="1.0567442"
     inkscape:pageshadow="2"
     inkscape:pageopacity="0.0"
     borderopacity="1.0"
     bordercolor="#666666"
     pagecolor="#ffffff"
     id="base"
     inkscape:showpageshadow="false"
     units="px" />
  <metadata
     id="metadata5">
    <rdf:RDF>
      <cc:Work
         rdf:about="">
        <dc:format>image/svg+xml</dc:format>
        <dc:type
           rdf:resource="http://purl.org/dc/dcmitype/StillImage" />
        <dc:title></dc:title>
      </cc:Work>
    </rdf:RDF>
  </metadata>
  <g
     id="layer1"
     inkscape:groupmode="layer"
     inkscape:label="Layer 1">
    <path
       id="path1074"
       style="fill:#000000;fill-opacity:0.418699;stroke-width:0.0305488"
       inkscape:transform-center-y="6.123002"
       d="M 52.984386,0.61790167 C 46.466594,8.4700003 39.948799,16.32248 33.431004,24.174595 l 4.465009,2.577577 z"
       inkscape:transform-center-x="2.5041801" />
    <path
       id="path1103"
       style="opacity:0.196774;fill:#444444;fill-opacity:1;stroke-width:0.0972908"
       inkscape:transform-center-y="-29.330256"
       d="M 52.984386,3.9386943 C 42.085055,9.2611686 31.18572,14.58361 20.286386,19.906084 L 37.896013,30.072965 52.825834,4.2130548 C 35.409506,34.39261 17.992778,64.572149 0.57644723,94.752483 10.635098,101.53027 20.694147,108.30806 30.753197,115.08585 V 94.752483 H 105.39232 C 87.923279,64.481082 70.45383,34.210079 52.984386,3.9386943 Z m 0,36.5351817 c 6.931148,12.003611 13.862293,24.007206 20.793442,36.010817 H 32.190148 C 39.121694,64.481082 46.053241,52.477487 52.984386,40.473876 Z"
       inkscape:transform-center-x="-0.00014965798" />
    <path
       transform="scale(0.26458331)"
       d="M 200.25586 2.3300781 L 200.25586 2.3359375 C 159.06153 22.452252 117.86816 42.569108 76.673828 62.685547 L 143.22852 101.11133 L 195.60156 10.396484 C 131.12674 122.11826 66.652552 233.8389 2.1777344 345.56055 L 398.33398 345.56055 C 332.30926 231.15007 266.28211 116.74005 200.25586 2.3300781 z M 200.25586 140.42188 C 226.45233 185.78986 252.64923 231.1574 278.8457 276.52539 L 121.66406 276.52539 C 147.86052 231.1574 174.0594 185.7913 200.25586 140.42188 z M 2.1777344 345.56836 C 40.196188 371.1852 78.214411 396.80311 116.23438 422.41992 L 116.23438 345.56836 L 2.1777344 345.56836 z "
       inkscape:transform-center-y="-29.330206"
       inkscape:transform-center-x="9.7668454e-05"
       style="fill:#444444;fill-opacity:1;stroke-width:0.367713"
       id="path1105" />
    <path
       transform="scale(0.26458331)"
       d="M 200.25781 2.3359375 C 175.62362 32.013163 150.98966 61.691853 126.35547 91.369141 L 143.22852 101.11133 L 200.25781 2.3359375 z M 2.1777344 345.56836 C 40.196188 352.06344 78.214411 358.55948 116.23438 365.05469 L 116.23438 345.56836 L 2.1777344 345.56836 z "
       inkscape:transform-center-y="2.8916817"
       inkscape:transform-center-x="-0.00022103778"
       style="fill:#000000;fill-opacity:0.418699;stroke-width:0.11546"
       id="path1109" />
  </g>
</svg>
